<svg id="visual" viewBox="0 0 540 960" width="540" height="960" xmlns="http://www.w3.org/2000/svg" xmlns:xlink="http://www.w3.org/1999/xlink" version="1.1"><rect x="0" y="0" width="540" height="960" fill="#000000"></rect><path d="M0 725L15 730.2C30 735.3 60 745.7 90 748C120 750.3 150 744.7 180 740.7C210 736.7 240 734.3 270 731.5C300 728.7 330 725.3 360 726.2C390 727 420 732 450 737.8C480 743.7 510 750.3 525 753.7L540 757L540 961L525 961C510 961 480 961 450 961C420 961 390 961 360 961C330 961 300 961 270 961C240 961 210 961 180 961C150 961 120 961 90 961C60 961 30 961 15 961L0 961Z" fill="#fa7268"></path><path d="M0 763L15 768C30 773 60 783 90 786.5C120 790 150 787 180 782.3C210 777.7 240 771.3 270 771.3C300 771.3 330 777.7 360 779.5C390 781.3 420 778.7 450 775.3C480 772 510 768 525 766L540 764L540 961L525 961C510 961 480 961 450 961C420 961 390 961 360 961C330 961 300 961 270 961C240 961 210 961 180 961C150 961 120 961 90 961C60 961 30 961 15 961L0 961Z" fill="#fe978c"></path><path d="M0 825L15 823.7C30 822.3 60 819.7 90 820C120 820.3 150 823.7 180 824.3C210 825 240 823 270 820.7C300 818.3 330 815.7 360 814.2C390 812.7 420 812.3 450 812.7C480 813 510 814 525 814.5L540 815L540 961L525 961C510 961 480 961 450 961C420 961 390 961 360 961C330 961 300 961 270 961C240 961 210 961 180 961C150 961 120 961 90 961C60 961 30 961 15 961L0 961Z" fill="#ffbab1"></path><path d="M0 876L15 877.3C30 878.7 60 881.3 90 881.2C120 881 150 878 180 876.8C210 875.7 240 876.3 270 877.7C300 879 330 881 360 880.8C390 880.7 420 878.3 450 876C480 873.7 510 871.3 525 870.2L540 869L540 961L525 961C510 961 480 961 450 961C420 961 390 961 360 961C330 961 300 961 270 961C240 961 210 961 180 961C150 961 120 961 90 961C60 961 30 961 15 961L0 961Z" fill="#ffddd7"></path><path d="M0 908L15 908.5C30 909 60 910 90 909.2C120 908.3 150 905.7 180 906.3C210 907 240 911 270 913C300 915 330 915 360 915C390 915 420 915 450 915.3C480 915.7 510 916.3 525 916.7L540 917L540 961L525 961C510 961 480 961 450 961C420 961 390 961 360 961C330 961 300 961 270 961C240 961 210 961 180 961C150 961 120 961 90 961C60 961 30 961 15 961L0 961Z" fill="#ffffff"></path></svg>