<svg id="visual" viewBox="0 0 900 500" width="900" height="500" xmlns="http://www.w3.org/2000/svg" xmlns:xlink="http://www.w3.org/1999/xlink" version="1.1"><rect x="0" y="0" width="900" height="500" fill="#000000"></rect><path d="M0 311L21.5 314.3C43 317.7 86 324.3 128.8 325.7C171.7 327 214.3 323 257.2 323.5C300 324 343 329 385.8 330.2C428.7 331.3 471.3 328.7 514.2 323.2C557 317.7 600 309.3 642.8 310.3C685.7 311.3 728.3 321.7 771.2 327.3C814 333 857 334 878.5 334.5L900 335L900 501L878.5 501C857 501 814 501 771.2 501C728.3 501 685.7 501 642.8 501C600 501 557 501 514.2 501C471.3 501 428.7 501 385.8 501C343 501 300 501 257.2 501C214.3 501 171.7 501 128.8 501C86 501 43 501 21.5 501L0 501Z" fill="#fa7268"></path><path d="M0 379L21.5 375.5C43 372 86 365 128.8 361.5C171.7 358 214.3 358 257.2 358.2C300 358.3 343 358.7 385.8 354.8C428.7 351 471.3 343 514.2 342.7C557 342.3 600 349.7 642.8 359C685.7 368.3 728.3 379.7 771.2 384.2C814 388.7 857 386.3 878.5 385.2L900 384L900 501L878.5 501C857 501 814 501 771.2 501C728.3 501 685.7 501 642.8 501C600 501 557 501 514.2 501C471.3 501 428.7 501 385.8 501C343 501 300 501 257.2 501C214.3 501 171.7 501 128.8 501C86 501 43 501 21.5 501L0 501Z" fill="#fe978c"></path><path d="M0 409L21.5 406C43 403 86 397 128.8 391.5C171.7 386 214.3 381 257.2 377.8C300 374.7 343 373.3 385.8 378.8C428.7 384.3 471.3 396.7 514.2 402.7C557 408.7 600 408.3 642.8 402.2C685.7 396 728.3 384 771.2 384.7C814 385.3 857 398.7 878.5 405.3L900 412L900 501L878.5 501C857 501 814 501 771.2 501C728.3 501 685.7 501 642.8 501C600 501 557 501 514.2 501C471.3 501 428.7 501 385.8 501C343 501 300 501 257.2 501C214.3 501 171.7 501 128.8 501C86 501 43 501 21.5 501L0 501Z" fill="#ffbab1"></path><path d="M0 408L21.5 408.7C43 409.3 86 410.7 128.8 411.5C171.7 412.3 214.3 412.7 257.2 415.3C300 418 343 423 385.8 427.2C428.7 431.3 471.3 434.7 514.2 435.3C557 436 600 434 642.8 433.3C685.7 432.7 728.3 433.3 771.2 433.2C814 433 857 432 878.5 431.5L900 431L900 501L878.5 501C857 501 814 501 771.2 501C728.3 501 685.7 501 642.8 501C600 501 557 501 514.2 501C471.3 501 428.7 501 385.8 501C343 501 300 501 257.2 501C214.3 501 171.7 501 128.8 501C86 501 43 501 21.5 501L0 501Z" fill="#ffddd7"></path><path d="M0 447L21.5 450.7C43 454.3 86 461.7 128.8 461.5C171.7 461.3 214.3 453.7 257.2 454.3C300 455 343 464 385.8 463.5C428.7 463 471.3 453 514.2 452.2C557 451.3 600 459.7 642.8 463.5C685.7 467.3 728.3 466.7 771.2 466.7C814 466.7 857 467.3 878.5 467.7L900 468L900 501L878.5 501C857 501 814 501 771.2 501C728.3 501 685.7 501 642.8 501C600 501 557 501 514.2 501C471.3 501 428.7 501 385.8 501C343 501 300 501 257.2 501C214.3 501 171.7 501 128.8 501C86 501 43 501 21.5 501L0 501Z" fill="#ffffff"></path></svg>